HIERARCHY
ROOT Hips
{
	OFFSET -21.947001 39.810204 44.525997
	CHANNELS 6 Xposition Yposition Zposition Zrotation Xrotation Yrotation
	JOINT Chest
	{
		OFFSET -0.201599 0.334099 6.453201
		CHANNELS 6 Xposition Yposition Zposition Zrotation Xrotation Yrotation
		JOINT Chest2
		{
			OFFSET 0.000000 0.000000 3.568001
			CHANNELS 6 Xposition Yposition Zposition Zrotation Xrotation Yrotation
			JOINT Neck
			{
				OFFSET 0.000000 0.000000 8.296402
				CHANNELS 6 Xposition Yposition Zposition Zrotation Xrotation Yrotation
				JOINT Head
				{
					OFFSET 0.000000 0.000000 2.173901
					CHANNELS 6 Xposition Yposition Zposition Zrotation Xrotation Yrotation
					End Site
					{
						OFFSET 0.000000 0.000000 7.891998
					}
				}
			}
			JOINT LeftCollar
			{
				OFFSET 1.927601 0.221401 6.049000
				CHANNELS 6 Xposition Yposition Zposition Zrotation Xrotation Yrotation
				JOINT LeftShoulder
				{
					OFFSET 4.959700 0.000000 0.000000
					CHANNELS 6 Xposition Yposition Zposition Zrotation Xrotation Yrotation
					JOINT LeftElbow
					{
						OFFSET 0.000000 0.000000 -8.654202
						CHANNELS 6 Xposition Yposition Zposition Zrotation Xrotation Yrotation
						JOINT LeftWrist
						{
							OFFSET 0.000000 0.000000 -13.864101
							CHANNELS 6 Xposition Yposition Zposition Zrotation Xrotation Yrotation
							End Site
							{
								OFFSET 0.000000 0.000000 -2.173901
							}
						}
					}
				}
			}
			JOINT RightCollar
			{
				OFFSET -3.155701 -0.764999 6.687801
				CHANNELS 6 Xposition Yposition Zposition Zrotation Xrotation Yrotation
				JOINT RightShoulder
				{
					OFFSET -3.592899 0.000000 0.000000
					CHANNELS 6 Xposition Yposition Zposition Zrotation Xrotation Yrotation
					JOINT RightElbow
					{
						OFFSET 0.000000 0.000000 -10.352398
						CHANNELS 6 Xposition Yposition Zposition Zrotation Xrotation Yrotation
						JOINT RightWrist
						{
							OFFSET 0.000000 0.000000 -12.750301
							CHANNELS 6 Xposition Yposition Zposition Zrotation Xrotation Yrotation
							End Site
							{
								OFFSET 0.000000 0.000000 -2.173901
							}
						}
					}
				}
			}
		}
	}
	JOINT LeftHip
	{
		OFFSET 2.460600 -0.518101 -2.735500
		CHANNELS 6 Xposition Yposition Zposition Zrotation Xrotation Yrotation
		JOINT LeftKnee
		{
			OFFSET 0.000000 -0.000004 -17.005899
			CHANNELS 6 Xposition Yposition Zposition Zrotation Xrotation Yrotation
			JOINT LeftAnkle
			{
				OFFSET 0.000000 0.000000 -19.194401
				CHANNELS 6 Xposition Yposition Zposition Zrotation Xrotation Yrotation
				End Site
				{
					OFFSET 0.000000 -8.134600 0.000000
				}
			}
		}
	}
	JOINT RightHip
	{
		OFFSET -3.115499 -0.679600 -2.320301
		CHANNELS 6 Xposition Yposition Zposition Zrotation Xrotation Yrotation
		JOINT RightKnee
		{
			OFFSET 0.000000 -0.000004 -17.680401
			CHANNELS 6 Xposition Yposition Zposition Zrotation Xrotation Yrotation
			JOINT RightAnkle
			{
				OFFSET 0.000000 0.000000 -16.993797
				CHANNELS 6 Xposition Yposition Zposition Zrotation Xrotation Yrotation
				End Site
				{
					OFFSET 0.000000 -8.842300 0.000000
				}
			}
		}
	}
}
MOTION
Frames: 9
Frame Time: 0.041667
57.997612 1.669907 45.051201 2813.312299 9.924676 11.349375 -0.201602 0.334092 6.453201 19.720325 -8.862090 2.483923 0.000004 0.000003 3.568001 -4.832993 2.137719 -0.058277 -0.000001 0.000004 8.296395 223.839000 -176.567220 176.025026 -0.000005 0.000001 2.173896 3.734246 0.322349 4.481539 1.927597 0.221405 6.048999 -15.124448 -2.657963 3.215339 4.959702 0.000006 0.000000 211.328280 162.904738 103.527602 -0.000001 -0.000003 -8.654205 0.671640 -10.513856 5.714278 -0.000005 -0.000004 -13.864104 4006.774311 -16.244012 -3.556003 -3.155707 -0.764997 6.687800 45.975100 16.985053 22.607796 -3.592900 -0.000003 0.000004 -221.891536 178.703840 285.895545 -0.000006 0.000005 -10.352396 -437.920065 6.304811 -354.005645 -0.000003 -0.000006 -12.750313 112.886300 160.742259 -164.746622 2.460600 -0.518106 -2.735507 -1066.977072 -13.190690 -5.350394 -0.000004 0.000003 -17.005905 873.247499 158.653451 -174.531947 -0.000006 0.000006 -19.194399 201.678329 161.356471 172.073707 -3.115495 -0.679594 -2.320306 -353.343089 8.208804 2.234721 -0.000003 -0.000009 -17.680399 -858.469210 158.280837 -192.583426 0.000009 0.000010 -16.993797 1402.666117 35.430773 -376.717936
57.944099 1.580711 45.053398 2812.772441 10.212756 11.691653 -0.201599 0.334095 6.453193 20.191907 -9.463377 2.418829 0.000006 -0.000001 3.567996 -4.864879 2.261905 -0.039487 0.000003 -0.000004 8.296402 223.996955 -176.494970 176.002008 -0.000001 -0.000001 2.173909 3.738615 0.301181 4.473901 1.927603 0.221401 6.049007 -15.239554 -2.591124 3.268259 4.959709 0.000002 0.000004 211.383194 162.376109 103.506838 0.000007 -0.000002 -8.654201 -1.110087 -11.571196 6.216461 0.000002 -0.000001 -13.864102 4006.369527 -16.187465 -3.674118 -3.155700 -0.765005 6.687814 46.205349 17.334723 22.744279 -3.592896 0.000002 0.000002 -221.963007 179.608294 286.195363 -0.000003 0.000004 -10.352396 -436.871303 6.368621 -354.205633 0.000001 -0.000001 -12.750299 112.226401 160.806354 -164.740051 2.460603 -0.518097 -2.735512 -1066.412516 -13.553766 -5.373172 -0.000005 -0.000006 -17.005899 873.067565 158.537638 -174.624469 -0.000002 0.000003 -19.194399 201.671499 161.461410 172.098542 -3.115498 -0.679595 -2.320303 -352.542946 9.234427 2.507148 -0.000005 -0.000006 -17.680405 -852.518203 158.591337 -194.640707 0.000003 -0.000000 -16.993795 1397.974159 35.307703 -381.042539
57.888702 1.494003 45.055607 2812.272799 10.551561 12.046714 -0.201603 0.334105 6.453207 20.625805 -10.145716 2.360786 0.000001 0.000002 3.568001 -4.903211 2.399849 -0.019413 0.000002 -0.000005 8.296396 224.198706 -176.468702 175.933884 0.000003 0.000000 2.173896 3.704186 0.302812 4.458670 1.927603 0.221399 6.049000 -15.344942 -2.508816 3.310815 4.959698 -0.000002 -0.000001 211.432167 161.910276 103.511510 -0.000001 -0.000001 -8.654199 -2.630635 -12.611976 6.699206 0.000003 0.000006 -13.864103 4005.895238 -16.148135 -3.664842 -3.155700 -0.765001 6.687804 46.474171 17.719601 22.902849 -3.592903 0.000005 0.000005 -222.126262 180.456644 286.408383 -0.000000 0.000004 -10.352398 -435.768938 6.394911 -354.471436 0.000002 -0.000002 -12.750304 111.506602 160.974226 -164.692704 2.460596 -0.518096 -2.735496 -1065.644256 -14.036249 -5.353893 -0.000005 0.000003 -17.005899 872.793428 158.364192 -174.718479 -0.000002 0.000005 -19.194397 201.522437 161.581157 172.110535 -3.115497 -0.679586 -2.320296 -351.713925 10.256560 2.749595 -0.000007 0.000008 -17.680405 -853.345912 157.845016 -195.514001 0.000003 0.000001 -16.993797 1398.723076 34.680309 -384.345946
57.832596 1.407505 45.057800 2811.824957 11.109156 12.344011 -0.201597 0.334105 6.453209 21.011690 -10.955133 2.407563 -0.000000 -0.000001 3.568001 -4.944223 2.516129 -0.003015 0.000005 0.000003 8.296400 224.386249 -176.476365 175.909937 -0.000008 0.000001 2.173903 3.656059 0.309328 4.399847 1.927605 0.221408 6.049001 -15.442614 -2.465250 3.405209 4.959706 -0.000005 -0.000002 211.440103 161.515778 103.568713 0.000005 -0.000001 -8.654202 -3.987849 -13.543195 7.051870 0.000006 -0.000008 -13.864103 4005.738745 -16.096548 -3.947965 -3.155702 -0.765003 6.687806 46.723671 18.139855 23.143403 -3.592902 0.000000 0.000003 -222.300432 181.165686 286.549658 -0.000007 0.000002 -10.352395 -434.482540 6.455622 -354.672900 -0.000001 -0.000004 -12.750296 110.479942 161.206029 -164.622968 2.460600 -0.518094 -2.735497 -1065.277721 -14.583355 -5.283609 -0.000003 0.000002 -17.005903 872.384600 158.308704 -174.777547 -0.000001 0.000007 -19.194401 201.766288 161.691232 172.182744 -3.115498 -0.679591 -2.320293 -351.060112 11.054770 3.135031 0.000002 0.000008 -17.680399 -848.543525 158.245279 -197.672696 0.000005 -0.000005 -16.993797 1394.727142 34.492988 -388.873897
57.779221 1.321507 45.059891 2811.408588 11.330788 12.636229 -0.201600 0.334108 6.453203 21.428303 -11.411646 2.337974 0.000001 0.000008 3.568002 -5.000234 2.625226 0.010002 0.000003 -0.000000 8.296388 224.585554 -176.487608 175.894132 -0.000006 -0.000000 2.173908 3.587546 0.329664 4.345801 1.927599 0.221405 6.048992 -15.509119 -2.461566 3.494584 4.959700 0.000004 0.000008 211.376255 161.153123 103.702660 0.000001 0.000006 -8.654200 -5.144200 -14.307311 7.285426 -0.000003 0.000003 -13.864108 4005.830106 -16.045967 -4.255355 -3.155705 -0.764999 6.687799 46.916617 18.520715 23.482808 -3.592904 0.000005 0.000007 -222.490557 181.670669 286.594574 -0.000005 0.000004 -10.352405 -433.599069 6.451645 -354.857670 0.000004 0.000005 -12.750291 109.715248 160.920527 -163.980712 2.460598 -0.518096 -2.735499 -1064.860588 -14.824716 -5.258006 -0.000010 0.000001 -17.005901 871.915284 158.224734 -174.853813 -0.000007 0.000001 -19.194397 202.050041 161.811512 172.268340 -3.115501 -0.679583 -2.320302 -350.326167 12.192663 3.476136 -0.000009 0.000007 -17.680395 -845.738393 158.395188 -199.577513 0.000000 0.000004 -16.993792 1392.243248 34.175012 -392.975835
57.727501 1.236107 45.059692 2811.003804 11.506784 12.929937 -0.201596 0.334102 6.453199 21.831617 -11.777802 2.254942 0.000003 0.000004 3.567997 -5.070739 2.718002 0.017461 0.000005 0.000007 8.296399 224.781047 -176.485763 175.901277 -0.000007 0.000001 2.173895 3.563839 0.349916 4.276229 1.927598 0.221411 6.048992 -15.526963 -2.495892 3.538091 4.959704 0.000006 0.000003 211.282067 160.862430 103.927967 -0.000006 0.000004 -8.654200 -6.190104 -14.935790 7.435633 0.000000 -0.000001 -13.864098 4005.545533 -15.983686 -4.220551 -3.155704 -0.764998 6.687806 46.991428 18.806962 23.896272 -3.592907 0.000005 0.000012 -222.526347 181.886503 286.639434 0.000000 0.000005 -10.352398 -432.799308 6.503145 -354.910344 0.000005 0.000001 -12.750298 108.727500 161.061215 -164.022171 2.460603 -0.518095 -2.735503 -1064.336794 -15.058235 -5.180126 -0.000001 0.000004 -17.005901 871.332915 158.085043 -174.955173 -0.000001 0.000006 -19.194399 202.336445 161.970573 172.363703 -3.115496 -0.679594 -2.320294 -349.574628 13.381500 3.802903 -0.000004 0.000000 -17.680397 -843.457110 158.575846 -201.474051 0.000002 -0.000002 -16.993786 1389.984805 33.979228 -396.692906
57.678307 1.154907 45.058598 2810.604702 11.639246 13.231109 -0.201601 0.334105 6.453203 22.205327 -12.052826 2.147313 -0.000000 -0.000002 3.568001 -5.147469 2.800271 0.020396 0.000000 -0.000008 8.296400 225.002660 -176.467855 175.934977 -0.000003 -0.000000 2.173896 3.513264 0.362058 4.178272 1.927599 0.221395 6.048997 -15.482418 -2.581738 3.516875 4.959702 0.000004 0.000008 211.148850 160.554402 104.208729 0.000000 0.000005 -8.654200 -7.111627 -15.489542 7.568307 0.000002 0.000002 -13.864104 4005.599300 -16.056528 -4.082551 -3.155706 -0.765010 6.687801 46.830963 18.896789 24.524342 -3.592913 0.000002 -0.000000 -222.346071 181.933358 286.606158 -0.000002 0.000005 -10.352400 -432.411654 6.472364 -355.003590 0.000002 0.000002 -12.750298 108.082402 161.285915 -164.071826 2.460597 -0.518097 -2.735506 -1062.765195 -15.575662 -4.746961 -0.000006 -0.000008 -17.005905 870.863381 157.604675 -175.287215 -0.000003 0.000011 -19.194401 201.712261 162.145358 172.341874 -3.115500 -0.679593 -2.320298 -349.507993 14.341553 4.263574 0.000000 0.000002 -17.680399 -841.127852 158.471604 -203.624987 0.000009 -0.000002 -16.993790 1388.082406 33.744587 -399.419873
57.632111 1.076405 45.054790 2810.156424 11.710832 13.557715 -0.201598 0.334103 6.453197 22.612111 -12.233151 2.003148 0.000003 0.000005 3.568001 -5.241674 2.877201 0.019029 0.000000 -0.000000 8.296392 225.197402 -176.406315 176.044629 -0.000003 -0.000003 2.173909 3.513762 0.348430 4.114888 1.927604 0.221403 6.048997 -15.397307 -2.721766 3.480709 4.959703 0.000004 0.000002 211.033065 160.192129 104.487810 -0.000001 0.000005 -8.654205 -7.923675 -16.067328 7.685416 0.000007 -0.000012 -13.864103 4005.851088 -16.318652 -3.231003 -3.155702 -0.765004 6.687799 46.614832 18.941400 25.256684 -3.592902 0.000000 0.000001 -222.106810 181.870097 286.525561 0.000004 0.000005 -10.352402 -432.086346 6.459535 -355.040063 -0.000001 0.000001 -12.750298 107.534778 161.356949 -164.228825 2.460597 -0.518105 -2.735507 -1062.967587 -15.535192 -4.936855 -0.000004 0.000002 -17.005896 870.119109 157.639304 -175.217575 -0.000003 0.000011 -19.194401 202.751802 162.345236 172.540701 -3.115499 -0.679594 -2.320303 -348.203590 15.721542 4.425804 -0.000007 -0.000001 -17.680401 -839.530462 158.924555 -205.623583 -0.000001 -0.000006 -16.993792 1385.694026 33.647305 -402.332457
57.590294 1.000206 45.049297 2809.606730 11.797957 13.942893 -0.201599 0.334092 6.453198 23.006987 -12.434421 1.861182 0.000006 0.000005 3.567998 -5.330012 2.956810 0.017057 -0.000005 -0.000005 8.296391 225.467782 -176.255545 176.135156 0.000001 -0.000001 2.173910 3.506443 0.335461 4.137938 1.927590 0.221398 6.048995 -15.223862 -2.887337 3.294342 4.959700 0.000001 -0.000006 210.983054 159.831781 104.804451 0.000003 -0.000002 -8.654204 -8.623635 -16.734776 7.869217 -0.000003 -0.000000 -13.864105 4005.613288 -16.406133 -3.049272 -3.155713 -0.765008 6.687803 46.232751 18.750549 26.028929 -3.592902 0.000005 0.000008 -221.646114 181.684111 286.481657 -0.000005 0.000000 -10.352405 -432.031868 6.387642 -355.116261 0.000007 0.000003 -12.750319 107.289376 161.348029 -164.441941 2.460599 -0.518107 -2.735501 -1063.047255 -15.573364 -5.141798 0.000000 -0.000003 -17.005899 869.215338 157.627242 -175.095916 -0.000008 0.000003 -19.194403 203.862651 162.585099 172.745921 -3.115497 -0.679602 -2.320299 -346.784386 17.030076 4.532359 -0.000002 -0.000009 -17.680397 -838.448778 159.284233 -207.576552 -0.000003 -0.000007 -16.993793 1383.694693 33.669131 -404.682507
